<?xml version="1.0" encoding="utf-8"?>
<!-- Svg Vector Icons : http://www.sfont.cn -->
<!DOCTYPE svg PUBLIC "-//W3C//DTD SVG 1.1//EN" "http://www.w3.org/Graphics/SVG/1.1/DTD/svg11.dtd">
<svg version="1.1" xmlns="http://www.w3.org/2000/svg" xmlns:xlink="http://www.w3.org/1999/xlink" x="0px" y="0px" viewBox="0 0 1000 1000" enable-background="new 0 0 1000 1000" xml:space="preserve">
<metadata> Svg Vector Icons : http://www.sfont.cn </metadata>

<g><path style="fill:#00BB9C" d="M819.4,966.4H116.8C57.9,966.4,10,918.5,10,859.6V150.8C10,91.9,57.9,44,116.8,44h390v41.5h-390c-36,0-65.3,29.3-65.3,65.3v708.8c0,36,29.3,65.3,65.3,65.3h702.5c36,0,65.3-29.3,65.3-65.3v-237h41.5v237C926.2,918.5,878.3,966.4,819.4,966.4z"/>
<path style="fill:#00BB9C" d="M255.1,786.9c-5.5,0-10.8-2.2-14.8-6.2c-5.3-5.3-7.2-13-5.2-20.2l65.2-230.1c1-3.4,2.8-6.5,5.3-9L787.3,39.7c3.9-3.9,9.2-6.1,14.7-6.1c5.5,0,10.8,2.2,14.7,6.1l167.2,167.2c3.9,3.9,6.1,9.2,6.1,14.7c0,5.5-2.2,10.8-6.1,14.7L502.2,718c-2.6,2.6-5.8,4.4-9.3,5.4l-232.5,62.8C258.7,786.7,256.9,786.9,255.1,786.9z M338.8,546.9L285,736.6l191.7-51.8l463.1-463.1L802,83.7L338.8,546.9z"/>
  <path style="fill:#00BB9C" d="M352.4,503.9l180.3,180.3l-29.3,29.3L323,533.3L352.4,503.9L352.4,503.9z"/></g>
</svg>